<mxfile host="app.diagrams.net" modified="2021-01-11T06:34:15.551Z" agent="5.0 (Windows NT 10.0; Win64; x64) AppleWebKit/537.36 (KHTML, like Gecko) Chrome/87.0.4280.141 Safari/537.36" etag="OH98G6MKfGR6ddYi1nAE" version="14.1.3" type="github">
  <diagram id="C5RBs43oDa-KdzZeNtuy" name="Page-1">
    <mxGraphModel dx="808" dy="531" grid="1" gridSize="10" guides="1" tooltips="1" connect="1" arrows="1" fold="1" page="1" pageScale="1" pageWidth="827" pageHeight="1169" math="0" shadow="0">
      <root>
        <mxCell id="WIyWlLk6GJQsqaUBKTNV-0" />
        <mxCell id="WIyWlLk6GJQsqaUBKTNV-1" parent="WIyWlLk6GJQsqaUBKTNV-0" />
        <mxCell id="6SQeuPr72wDjYAihzbBb-19" style="edgeStyle=orthogonalEdgeStyle;rounded=0;orthogonalLoop=1;jettySize=auto;html=1;exitX=0.5;exitY=1;exitDx=0;exitDy=0;entryX=0.5;entryY=0;entryDx=0;entryDy=0;endArrow=block;endFill=0;endSize=8;fontFamily=华文宋体;" edge="1" parent="WIyWlLk6GJQsqaUBKTNV-1" source="WIyWlLk6GJQsqaUBKTNV-3" target="6SQeuPr72wDjYAihzbBb-2">
          <mxGeometry relative="1" as="geometry" />
        </mxCell>
        <mxCell id="6SQeuPr72wDjYAihzbBb-21" style="edgeStyle=orthogonalEdgeStyle;rounded=0;orthogonalLoop=1;jettySize=auto;html=1;exitX=0;exitY=0.5;exitDx=0;exitDy=0;entryX=0.5;entryY=0;entryDx=0;entryDy=0;endArrow=block;endFill=0;endSize=8;fontFamily=华文宋体;" edge="1" parent="WIyWlLk6GJQsqaUBKTNV-1" source="WIyWlLk6GJQsqaUBKTNV-3" target="6SQeuPr72wDjYAihzbBb-14">
          <mxGeometry relative="1" as="geometry" />
        </mxCell>
        <mxCell id="WIyWlLk6GJQsqaUBKTNV-3" value="读取倾斜三维模型数据" style="rounded=1;whiteSpace=wrap;html=1;fontSize=12;glass=0;strokeWidth=1;shadow=0;fillColor=#f5f5f5;strokeColor=#666666;fontColor=#333333;fontFamily=华文宋体;" parent="WIyWlLk6GJQsqaUBKTNV-1" vertex="1">
          <mxGeometry x="264" y="53" width="140" height="40" as="geometry" />
        </mxCell>
        <mxCell id="6SQeuPr72wDjYAihzbBb-13" style="edgeStyle=orthogonalEdgeStyle;rounded=0;orthogonalLoop=1;jettySize=auto;html=1;exitX=0.5;exitY=1;exitDx=0;exitDy=0;entryX=0.5;entryY=0;entryDx=0;entryDy=0;endArrow=block;endFill=0;endSize=8;fontFamily=华文宋体;" edge="1" parent="WIyWlLk6GJQsqaUBKTNV-1" source="6SQeuPr72wDjYAihzbBb-0" target="6SQeuPr72wDjYAihzbBb-4">
          <mxGeometry relative="1" as="geometry" />
        </mxCell>
        <mxCell id="6SQeuPr72wDjYAihzbBb-0" value="生成DOM以及DSM影像" style="rounded=1;whiteSpace=wrap;html=1;fontSize=12;glass=0;strokeWidth=1;shadow=0;fontFamily=华文宋体;" vertex="1" parent="WIyWlLk6GJQsqaUBKTNV-1">
          <mxGeometry x="260" y="200" width="150" height="40" as="geometry" />
        </mxCell>
        <mxCell id="6SQeuPr72wDjYAihzbBb-12" style="edgeStyle=orthogonalEdgeStyle;rounded=0;orthogonalLoop=1;jettySize=auto;html=1;exitX=0.5;exitY=1;exitDx=0;exitDy=0;endArrow=block;endFill=0;endSize=8;fontFamily=华文宋体;" edge="1" parent="WIyWlLk6GJQsqaUBKTNV-1" source="6SQeuPr72wDjYAihzbBb-2" target="6SQeuPr72wDjYAihzbBb-0">
          <mxGeometry relative="1" as="geometry" />
        </mxCell>
        <mxCell id="6SQeuPr72wDjYAihzbBb-2" value="确定模型数据范围" style="rounded=1;whiteSpace=wrap;html=1;fontSize=12;glass=0;strokeWidth=1;shadow=0;fontFamily=华文宋体;" vertex="1" parent="WIyWlLk6GJQsqaUBKTNV-1">
          <mxGeometry x="259" y="130" width="150" height="40" as="geometry" />
        </mxCell>
        <mxCell id="6SQeuPr72wDjYAihzbBb-9" value="否" style="edgeStyle=orthogonalEdgeStyle;rounded=0;orthogonalLoop=1;jettySize=auto;html=1;exitX=1;exitY=0.5;exitDx=0;exitDy=0;entryX=1;entryY=0.5;entryDx=0;entryDy=0;endArrow=block;endFill=0;endSize=8;fontFamily=华文宋体;" edge="1" parent="WIyWlLk6GJQsqaUBKTNV-1" source="6SQeuPr72wDjYAihzbBb-4" target="6SQeuPr72wDjYAihzbBb-2">
          <mxGeometry x="-0.8785" y="12" relative="1" as="geometry">
            <Array as="points">
              <mxPoint x="450" y="292" />
              <mxPoint x="450" y="150" />
            </Array>
            <mxPoint as="offset" />
          </mxGeometry>
        </mxCell>
        <mxCell id="6SQeuPr72wDjYAihzbBb-10" value="是" style="edgeStyle=orthogonalEdgeStyle;rounded=0;orthogonalLoop=1;jettySize=auto;html=1;exitX=0.5;exitY=1;exitDx=0;exitDy=0;entryX=0.5;entryY=0;entryDx=0;entryDy=0;endArrow=block;endFill=0;endSize=8;fontFamily=华文宋体;" edge="1" parent="WIyWlLk6GJQsqaUBKTNV-1" source="6SQeuPr72wDjYAihzbBb-4" target="6SQeuPr72wDjYAihzbBb-6">
          <mxGeometry x="-0.7391" y="-25" relative="1" as="geometry">
            <mxPoint as="offset" />
          </mxGeometry>
        </mxCell>
        <mxCell id="6SQeuPr72wDjYAihzbBb-4" value="生成成功" style="rhombus;whiteSpace=wrap;html=1;shadow=0;fontFamily=华文宋体;fontSize=12;align=center;strokeWidth=1;spacing=6;spacingTop=-4;" vertex="1" parent="WIyWlLk6GJQsqaUBKTNV-1">
          <mxGeometry x="285" y="267" width="100" height="50" as="geometry" />
        </mxCell>
        <mxCell id="6SQeuPr72wDjYAihzbBb-23" style="edgeStyle=orthogonalEdgeStyle;rounded=0;orthogonalLoop=1;jettySize=auto;html=1;exitX=0.5;exitY=1;exitDx=0;exitDy=0;entryX=0.5;entryY=0;entryDx=0;entryDy=0;endArrow=block;endFill=0;endSize=8;fontFamily=华文宋体;" edge="1" parent="WIyWlLk6GJQsqaUBKTNV-1" source="6SQeuPr72wDjYAihzbBb-6" target="6SQeuPr72wDjYAihzbBb-22">
          <mxGeometry relative="1" as="geometry" />
        </mxCell>
        <mxCell id="6SQeuPr72wDjYAihzbBb-6" value="重建倾斜模型顶层金字塔模型" style="rounded=1;whiteSpace=wrap;html=1;fontSize=12;glass=0;strokeWidth=1;shadow=0;fontFamily=华文宋体;" vertex="1" parent="WIyWlLk6GJQsqaUBKTNV-1">
          <mxGeometry x="250" y="340" width="170" height="40" as="geometry" />
        </mxCell>
        <mxCell id="6SQeuPr72wDjYAihzbBb-17" style="edgeStyle=orthogonalEdgeStyle;rounded=0;orthogonalLoop=1;jettySize=auto;html=1;exitX=0.5;exitY=1;exitDx=0;exitDy=0;entryX=0;entryY=0.5;entryDx=0;entryDy=0;endArrow=block;endFill=0;endSize=8;fontFamily=华文宋体;" edge="1" parent="WIyWlLk6GJQsqaUBKTNV-1" source="6SQeuPr72wDjYAihzbBb-14" target="6SQeuPr72wDjYAihzbBb-6">
          <mxGeometry relative="1" as="geometry" />
        </mxCell>
        <mxCell id="6SQeuPr72wDjYAihzbBb-14" value="计算顶层四叉树索引" style="rounded=1;whiteSpace=wrap;html=1;fontSize=12;glass=0;strokeWidth=1;shadow=0;fontFamily=华文宋体;" vertex="1" parent="WIyWlLk6GJQsqaUBKTNV-1">
          <mxGeometry x="130" y="260" width="130" height="40" as="geometry" />
        </mxCell>
        <mxCell id="6SQeuPr72wDjYAihzbBb-25" style="edgeStyle=orthogonalEdgeStyle;rounded=0;orthogonalLoop=1;jettySize=auto;html=1;exitX=0.5;exitY=1;exitDx=0;exitDy=0;entryX=0.5;entryY=0;entryDx=0;entryDy=0;endArrow=block;endFill=0;endSize=8;fontFamily=华文宋体;" edge="1" parent="WIyWlLk6GJQsqaUBKTNV-1" source="6SQeuPr72wDjYAihzbBb-22" target="6SQeuPr72wDjYAihzbBb-24">
          <mxGeometry relative="1" as="geometry" />
        </mxCell>
        <mxCell id="6SQeuPr72wDjYAihzbBb-22" value="模型优化" style="rounded=1;whiteSpace=wrap;html=1;fontSize=12;glass=0;strokeWidth=1;shadow=0;fontFamily=华文宋体;" vertex="1" parent="WIyWlLk6GJQsqaUBKTNV-1">
          <mxGeometry x="280" y="410" width="110" height="40" as="geometry" />
        </mxCell>
        <mxCell id="6SQeuPr72wDjYAihzbBb-28" value="是" style="edgeStyle=orthogonalEdgeStyle;rounded=0;orthogonalLoop=1;jettySize=auto;html=1;exitX=1;exitY=0.5;exitDx=0;exitDy=0;entryX=0;entryY=0.5;entryDx=0;entryDy=0;endArrow=block;endFill=0;endSize=8;fontFamily=华文宋体;" edge="1" parent="WIyWlLk6GJQsqaUBKTNV-1" source="6SQeuPr72wDjYAihzbBb-24" target="6SQeuPr72wDjYAihzbBb-27">
          <mxGeometry x="-0.1111" y="14" relative="1" as="geometry">
            <mxPoint as="offset" />
          </mxGeometry>
        </mxCell>
        <mxCell id="6SQeuPr72wDjYAihzbBb-30" value="否" style="edgeStyle=orthogonalEdgeStyle;rounded=0;orthogonalLoop=1;jettySize=auto;html=1;exitX=0.5;exitY=1;exitDx=0;exitDy=0;entryX=0.5;entryY=0;entryDx=0;entryDy=0;endArrow=block;endFill=0;endSize=8;fontFamily=华文宋体;" edge="1" parent="WIyWlLk6GJQsqaUBKTNV-1" source="6SQeuPr72wDjYAihzbBb-24" target="6SQeuPr72wDjYAihzbBb-26">
          <mxGeometry x="-0.2903" y="-14" relative="1" as="geometry">
            <mxPoint as="offset" />
          </mxGeometry>
        </mxCell>
        <mxCell id="6SQeuPr72wDjYAihzbBb-24" value="格式转换" style="rhombus;whiteSpace=wrap;html=1;shadow=0;fontFamily=华文宋体;fontSize=12;align=center;strokeWidth=1;spacing=6;spacingTop=-4;" vertex="1" parent="WIyWlLk6GJQsqaUBKTNV-1">
          <mxGeometry x="284" y="479" width="100" height="50" as="geometry" />
        </mxCell>
        <mxCell id="6SQeuPr72wDjYAihzbBb-26" value="结束" style="rounded=1;whiteSpace=wrap;html=1;fontSize=12;glass=0;strokeWidth=1;shadow=0;fontFamily=华文宋体;" vertex="1" parent="WIyWlLk6GJQsqaUBKTNV-1">
          <mxGeometry x="300" y="555" width="68" height="40" as="geometry" />
        </mxCell>
        <mxCell id="6SQeuPr72wDjYAihzbBb-29" style="edgeStyle=orthogonalEdgeStyle;rounded=0;orthogonalLoop=1;jettySize=auto;html=1;exitX=0.5;exitY=1;exitDx=0;exitDy=0;entryX=1;entryY=0.5;entryDx=0;entryDy=0;endArrow=block;endFill=0;endSize=8;fontFamily=华文宋体;" edge="1" parent="WIyWlLk6GJQsqaUBKTNV-1" source="6SQeuPr72wDjYAihzbBb-27" target="6SQeuPr72wDjYAihzbBb-26">
          <mxGeometry relative="1" as="geometry" />
        </mxCell>
        <mxCell id="6SQeuPr72wDjYAihzbBb-27" value="转换为3DTiles" style="rounded=1;whiteSpace=wrap;html=1;fontSize=12;glass=0;strokeWidth=1;shadow=0;fontFamily=华文宋体;" vertex="1" parent="WIyWlLk6GJQsqaUBKTNV-1">
          <mxGeometry x="420" y="484" width="110" height="40" as="geometry" />
        </mxCell>
        <mxCell id="6SQeuPr72wDjYAihzbBb-32" value="读取倾斜三维模型数据" style="rounded=1;whiteSpace=wrap;html=1;fontSize=12;glass=0;strokeWidth=1;shadow=0;fillColor=#f5f5f5;strokeColor=#666666;fontColor=#333333;fontFamily=华文宋体;" vertex="1" parent="WIyWlLk6GJQsqaUBKTNV-1">
          <mxGeometry x="265" y="53" width="140" height="40" as="geometry" />
        </mxCell>
        <mxCell id="6SQeuPr72wDjYAihzbBb-33" value="确定模型数据范围" style="rounded=1;whiteSpace=wrap;html=1;fontSize=12;glass=0;strokeWidth=1;shadow=0;fontFamily=华文宋体;" vertex="1" parent="WIyWlLk6GJQsqaUBKTNV-1">
          <mxGeometry x="260" y="130" width="150" height="40" as="geometry" />
        </mxCell>
        <mxCell id="6SQeuPr72wDjYAihzbBb-34" value="计算顶层四叉树索引" style="rounded=1;whiteSpace=wrap;html=1;fontSize=12;glass=0;strokeWidth=1;shadow=0;fontFamily=华文宋体;" vertex="1" parent="WIyWlLk6GJQsqaUBKTNV-1">
          <mxGeometry x="131" y="260" width="130" height="40" as="geometry" />
        </mxCell>
      </root>
    </mxGraphModel>
  </diagram>
</mxfile>
